<svg width="27" height="27" viewBox="0 0 27 27" fill="none" xmlns="http://www.w3.org/2000/svg">
<g clip-path="url(#clip0_202_1889)">
<path d="M26.0628 14.0005C26.0629 12.9091 25.7532 11.84 25.1699 10.9176C24.5865 9.99512 23.7534 9.25714 22.7672 8.78938V7.82131C22.7665 6.75965 22.424 5.72644 21.7904 4.87457C21.1568 4.0227 20.2658 3.39743 19.2493 3.09131C18.2327 2.78519 17.1446 2.81447 16.146 3.17482C15.1474 3.53517 14.2913 4.20745 13.7044 5.09216C13.1176 4.20745 12.2615 3.53517 11.2629 3.17482C10.2642 2.81447 9.17611 2.78519 8.15955 3.09131C7.14299 3.39743 6.25199 4.0227 5.6184 4.87457C4.98482 5.72644 4.64232 6.75965 4.64159 7.82131V8.78938C3.65533 9.25703 2.82202 9.99496 2.23851 10.9174C1.655 11.8399 1.34525 12.909 1.34525 14.0005C1.34525 15.092 1.655 16.1611 2.23851 17.0836C2.82202 18.0061 3.65533 18.744 4.64159 19.2116V19.3558C4.64232 20.4175 4.98482 21.4507 5.6184 22.3026C6.25199 23.1544 7.14299 23.7797 8.15955 24.0858C9.17611 24.3919 10.2642 24.3627 11.2629 24.0023C12.2615 23.6419 13.1176 22.9697 13.7044 22.085C14.2913 22.9697 15.1474 23.6419 16.146 24.0023C17.1446 24.3627 18.2327 24.3919 19.2493 24.0858C20.2658 23.7797 21.1568 23.1544 21.7904 22.3026C22.424 21.4507 22.7665 20.4175 22.7672 19.3558V19.2116C23.7526 18.7429 24.5851 18.0047 25.1683 17.0824C25.7515 16.1602 26.0617 15.0917 26.0628 14.0005V14.0005ZM9.58495 22.6514C8.77187 22.6509 7.98767 22.3499 7.38312 21.8062C6.77858 21.2624 6.39637 20.5144 6.30998 19.706C6.57568 19.7478 6.84429 19.7685 7.11327 19.7678H7.93716C8.15567 19.7678 8.36523 19.681 8.51974 19.5264C8.67425 19.3719 8.76106 19.1624 8.76106 18.9439C8.76106 18.7254 8.67425 18.5158 8.51974 18.3613C8.36523 18.2068 8.15567 18.12 7.93716 18.12H7.11327C6.14244 18.1183 5.20338 17.7738 4.46177 17.1473C3.72017 16.5208 3.22367 15.6525 3.05987 14.6955C2.89608 13.7386 3.07551 12.7546 3.56651 11.9171C4.05751 11.0796 4.82854 10.4424 5.74355 10.1179C5.90366 10.0589 6.04183 9.95227 6.13943 9.81231C6.23703 9.67236 6.28936 9.50584 6.28938 9.33521V7.82131C6.28938 6.94727 6.63659 6.10903 7.25463 5.49099C7.87267 4.87295 8.71091 4.52574 9.58495 4.52574C10.459 4.52574 11.2972 4.87295 11.9153 5.49099C12.5333 6.10903 12.8805 6.94727 12.8805 7.82131V15.6792C11.9785 14.8606 10.803 14.4087 9.58495 14.4125C9.36644 14.4125 9.15688 14.4993 9.00237 14.6538C8.84786 14.8083 8.76106 15.0178 8.76106 15.2363C8.76106 15.4549 8.84786 15.6644 9.00237 15.8189C9.15688 15.9734 9.36644 16.0602 9.58495 16.0602C10.459 16.0602 11.2972 16.4075 11.9153 17.0255C12.5333 17.6435 12.8805 18.4818 12.8805 19.3558C12.8805 20.2299 12.5333 21.0681 11.9153 21.6861C11.2972 22.3042 10.459 22.6514 9.58495 22.6514ZM20.2956 18.12H19.4717C19.2532 18.12 19.0436 18.2068 18.8891 18.3613C18.7346 18.5158 18.6478 18.7254 18.6478 18.9439C18.6478 19.1624 18.7346 19.3719 18.8891 19.5264C19.0436 19.681 19.2532 19.7678 19.4717 19.7678H20.2956C20.5645 19.7685 20.8332 19.7478 21.0989 19.706C21.0312 20.3393 20.7814 20.9395 20.3798 21.4338C19.9781 21.9282 19.4419 22.2956 18.8358 22.4916C18.2297 22.6875 17.5799 22.7036 16.9648 22.538C16.3498 22.3723 15.796 22.032 15.3703 21.5581C14.9446 21.0843 14.6654 20.4973 14.5664 19.868C14.4674 19.2388 14.5529 18.5944 14.8125 18.0127C15.072 17.4311 15.4946 16.9371 16.0291 16.5906C16.5635 16.2441 17.1869 16.0599 17.8239 16.0602C18.0424 16.0602 18.252 15.9734 18.4065 15.8189C18.561 15.6644 18.6478 15.4549 18.6478 15.2363C18.6478 15.0178 18.561 14.8083 18.4065 14.6538C18.252 14.4993 18.0424 14.4125 17.8239 14.4125C16.6058 14.4087 15.4303 14.8606 14.5283 15.6792V7.82131C14.5283 6.94727 14.8755 6.10903 15.4936 5.49099C16.1116 4.87295 16.9498 4.52574 17.8239 4.52574C18.6979 4.52574 19.5362 4.87295 20.1542 5.49099C20.7722 6.10903 21.1195 6.94727 21.1195 7.82131V9.33521C21.1195 9.50584 21.1718 9.67236 21.2694 9.81231C21.367 9.95227 21.5052 10.0589 21.6653 10.1179C22.5803 10.4424 23.3513 11.0796 23.8423 11.9171C24.3333 12.7546 24.5128 13.7386 24.349 14.6955C24.1852 15.6525 23.6887 16.5208 22.9471 17.1473C22.2055 17.7738 21.2664 18.1183 20.2956 18.12V18.12ZM6.70132 13.5886C6.48281 13.5886 6.27325 13.5018 6.11874 13.3472C5.96423 13.1927 5.87743 12.9832 5.87743 12.7647C5.87743 12.5462 5.96423 12.3366 6.11874 12.1821C6.27325 12.0276 6.48281 11.9408 6.70132 11.9408C7.24677 11.9381 7.76909 11.7202 8.15478 11.3345C8.54047 10.9488 8.75835 10.4265 8.76106 9.88104V9.05715C8.76106 8.83864 8.84786 8.62908 9.00237 8.47457C9.15688 8.32006 9.36644 8.23326 9.58495 8.23326C9.80346 8.23326 10.013 8.32006 10.1675 8.47457C10.322 8.62908 10.4088 8.83864 10.4088 9.05715V9.88104C10.4088 10.8643 10.0182 11.8074 9.32294 12.5027C8.62764 13.1979 7.68462 13.5886 6.70132 13.5886V13.5886ZM21.5314 12.7647C21.5314 12.9832 21.4446 13.1927 21.2901 13.3472C21.1356 13.5018 20.926 13.5886 20.7075 13.5886C19.7242 13.5886 18.7812 13.1979 18.0859 12.5027C17.3906 11.8074 17 10.8643 17 9.88104V9.05715C17 8.83864 17.0868 8.62908 17.2413 8.47457C17.3958 8.32006 17.6054 8.23326 17.8239 8.23326C18.0424 8.23326 18.252 8.32006 18.4065 8.47457C18.561 8.62908 18.6478 8.83864 18.6478 9.05715V9.88104C18.6505 10.4265 18.8684 10.9488 19.254 11.3345C19.6397 11.7202 20.1621 11.9381 20.7075 11.9408C20.926 11.9408 21.1356 12.0276 21.2901 12.1821C21.4446 12.3366 21.5314 12.5462 21.5314 12.7647Z" fill="#471515"/>
</g>
<defs>
<clipPath id="clip0_202_1889">
<rect width="26.3646" height="26.3646" fill="white" transform="translate(0.522128 0.40625)"/>
</clipPath>
</defs>
</svg>
