<svg width="27" height="27" viewBox="0 0 27 27" fill="none" xmlns="http://www.w3.org/2000/svg">
<path d="M8.26109 6.1735V2.87792C8.26109 2.65941 8.34789 2.44985 8.5024 2.29534C8.65691 2.14083 8.86647 2.05403 9.08498 2.05403C9.30349 2.05403 9.51305 2.14083 9.66756 2.29534C9.82207 2.44985 9.90887 2.65941 9.90887 2.87792V6.1735C9.90887 6.39201 9.82207 6.60157 9.66756 6.75608C9.51305 6.91059 9.30349 6.99739 9.08498 6.99739C8.86647 6.99739 8.65691 6.91059 8.5024 6.75608C8.34789 6.60157 8.26109 6.39201 8.26109 6.1735ZM12.3806 6.99739C12.5991 6.99739 12.8086 6.91059 12.9631 6.75608C13.1176 6.60157 13.2044 6.39201 13.2044 6.1735V2.87792C13.2044 2.65941 13.1176 2.44985 12.9631 2.29534C12.8086 2.14083 12.5991 2.05403 12.3806 2.05403C12.162 2.05403 11.9525 2.14083 11.798 2.29534C11.6435 2.44985 11.5567 2.65941 11.5567 2.87792V6.1735C11.5567 6.39201 11.6435 6.60157 11.798 6.75608C11.9525 6.91059 12.162 6.99739 12.3806 6.99739ZM15.6761 6.99739C15.8946 6.99739 16.1042 6.91059 16.2587 6.75608C16.4132 6.60157 16.5 6.39201 16.5 6.1735V2.87792C16.5 2.65941 16.4132 2.44985 16.2587 2.29534C16.1042 2.14083 15.8946 2.05403 15.6761 2.05403C15.4576 2.05403 15.2481 2.14083 15.0935 2.29534C14.939 2.44985 14.8522 2.65941 14.8522 2.87792V6.1735C14.8522 6.39201 14.939 6.60157 15.0935 6.75608C15.2481 6.91059 15.4576 6.99739 15.6761 6.99739ZM25.5628 12.7646V13.5885C25.5623 14.6361 25.1626 15.6441 24.4452 16.4075C23.7277 17.1709 22.7464 17.6322 21.7008 17.6977C21.1334 19.2849 20.1774 20.7047 18.9202 21.8275H21.4434C21.6619 21.8275 21.8714 21.9143 22.026 22.0688C22.1805 22.2233 22.2673 22.4328 22.2673 22.6514C22.2673 22.8699 22.1805 23.0794 22.026 23.2339C21.8714 23.3884 21.6619 23.4752 21.4434 23.4752H3.31773C3.09922 23.4752 2.88966 23.3884 2.73515 23.2339C2.58064 23.0794 2.49384 22.8699 2.49384 22.6514C2.49384 22.4328 2.58064 22.2233 2.73515 22.0688C2.88966 21.9143 3.09922 21.8275 3.31773 21.8275H5.8409C4.79098 20.898 3.94987 19.7566 3.37296 18.4785C2.79605 17.2005 2.49644 15.8147 2.49384 14.4124V9.46907C2.49384 9.25056 2.58064 9.041 2.73515 8.88649C2.88966 8.73198 3.09922 8.64517 3.31773 8.64517H21.4434C22.5359 8.64517 23.5837 9.07919 24.3563 9.85174C25.1288 10.6243 25.5628 11.6721 25.5628 12.7646ZM20.6195 10.293H4.14162V14.4124C4.14497 15.9591 4.58198 17.4738 5.40301 18.7845C6.22404 20.0953 7.39619 21.1495 8.78632 21.8275H15.9748C17.0132 21.32 17.9338 20.6005 18.677 19.7153C19.4203 18.8301 19.9697 17.799 20.2899 16.6884C20.3014 16.6697 20.3085 16.6485 20.3105 16.6266C20.5176 15.9069 20.6216 15.1614 20.6195 14.4124V10.293ZM23.9151 12.7646C23.9145 12.254 23.7557 11.7561 23.4607 11.3393C23.1656 10.9225 22.7487 10.6074 22.2673 10.4371V14.4124C22.2679 14.9299 22.2266 15.4465 22.1437 15.9572C22.6549 15.8062 23.1036 15.494 23.4228 15.0671C23.742 14.6402 23.9147 14.1216 23.9151 13.5885V12.7646Z" fill="#14401D"/>
</svg>
